<svg width="13" height="8" viewBox="0 0 13 8" fill="none" xmlns="http://www.w3.org/2000/svg">
<path d="M5.87297 7.65418C5.92856 7.72268 6.00295 7.77869 6.08973 7.81738C6.1765 7.85607 6.27306 7.87629 6.37109 7.87629C6.46912 7.87629 6.56568 7.85607 6.65246 7.81738C6.73923 7.77869 6.81362 7.72268 6.86921 7.65418L12.3231 0.970925C12.3862 0.893839 12.4233 0.803551 12.4302 0.709869C12.437 0.616187 12.4135 0.522695 12.3622 0.439551C12.3108 0.356406 12.2336 0.286789 12.1389 0.238264C12.0442 0.189738 11.9356 0.164159 11.825 0.164307H0.917193C0.806808 0.164694 0.698636 0.190602 0.604309 0.239244C0.509982 0.287885 0.43307 0.357421 0.381843 0.440374C0.330617 0.523326 0.307014 0.616556 0.313573 0.710037C0.320132 0.803518 0.356605 0.893714 0.41907 0.970925L5.87297 7.65418Z" fill="#4E5983"/>
</svg>
